<?xml version="1.0" encoding="utf-8" standalone="no"?>
<!DOCTYPE svg PUBLIC "-//W3C//DTD SVG 1.1//EN"
  "http://www.w3.org/Graphics/SVG/1.1/DTD/svg11.dtd">
<svg xmlns:xlink="http://www.w3.org/1999/xlink" width="460.8pt" height="345.6pt" viewBox="0 0 460.8 345.6" xmlns="http://www.w3.org/2000/svg" version="1.1">
 <metadata>
  <rdf:RDF xmlns:dc="http://purl.org/dc/elements/1.1/" xmlns:cc="http://creativecommons.org/ns#" xmlns:rdf="http://www.w3.org/1999/02/22-rdf-syntax-ns#">
   <cc:Work>
    <dc:type rdf:resource="http://purl.org/dc/dcmitype/StillImage"/>
    <dc:date>2022-02-07T22:27:53.977365</dc:date>
    <dc:format>image/svg+xml</dc:format>
    <dc:creator>
     <cc:Agent>
      <dc:title>Matplotlib v3.5.1, https://matplotlib.org/</dc:title>
     </cc:Agent>
    </dc:creator>
   </cc:Work>
  </rdf:RDF>
 </metadata>
 <defs>
  <style type="text/css">*{stroke-linejoin: round; stroke-linecap: butt}</style>
 </defs>
 <g id="figure_1">
  <g id="patch_1">
   <path d="M 0 345.6 
L 460.8 345.6 
L 460.8 0 
L 0 0 
z
" style="fill: #ffffff"/>
  </g>
  <g id="axes_1">
   <g id="patch_2">
    <path d="M 57.6 307.584 
L 414.72 307.584 
L 414.72 41.472 
L 57.6 41.472 
z
" style="fill: #ffffff"/>
   </g>
   <g id="matplotlib.axis_1">
    <g id="xtick_1">
     <g id="line2d_1">
      <defs>
       <path id="m7e5893f736" d="M 0 0 
L 0 3.5 
" style="stroke: #000000; stroke-width: 0.8"/>
      </defs>
      <g>
       <use xlink:href="#m7e5893f736" x="90.283252" y="307.584" style="stroke: #000000; stroke-width: 0.8"/>
      </g>
     </g>
     <g id="text_1">
      <!-- 2.2 -->
      <g transform="translate(82.331689 322.182437)scale(0.1 -0.1)">
       <defs>
        <path id="DejaVuSans-32" d="M 1228 531 
L 3431 531 
L 3431 0 
L 469 0 
L 469 531 
Q 828 903 1448 1529 
Q 2069 2156 2228 2338 
Q 2531 2678 2651 2914 
Q 2772 3150 2772 3378 
Q 2772 3750 2511 3984 
Q 2250 4219 1831 4219 
Q 1534 4219 1204 4116 
Q 875 4013 500 3803 
L 500 4441 
Q 881 4594 1212 4672 
Q 1544 4750 1819 4750 
Q 2544 4750 2975 4387 
Q 3406 4025 3406 3419 
Q 3406 3131 3298 2873 
Q 3191 2616 2906 2266 
Q 2828 2175 2409 1742 
Q 1991 1309 1228 531 
z
" transform="scale(0.015625)"/>
        <path id="DejaVuSans-2e" d="M 684 794 
L 1344 794 
L 1344 0 
L 684 0 
L 684 794 
z
" transform="scale(0.015625)"/>
       </defs>
       <use xlink:href="#DejaVuSans-32"/>
       <use xlink:href="#DejaVuSans-2e" x="63.623047"/>
       <use xlink:href="#DejaVuSans-32" x="95.410156"/>
      </g>
     </g>
    </g>
    <g id="xtick_2">
     <g id="line2d_2">
      <g>
       <use xlink:href="#m7e5893f736" x="132.931771" y="307.584" style="stroke: #000000; stroke-width: 0.8"/>
      </g>
     </g>
     <g id="text_2">
      <!-- 2.4 -->
      <g transform="translate(124.980208 322.182437)scale(0.1 -0.1)">
       <defs>
        <path id="DejaVuSans-34" d="M 2419 4116 
L 825 1625 
L 2419 1625 
L 2419 4116 
z
M 2253 4666 
L 3047 4666 
L 3047 1625 
L 3713 1625 
L 3713 1100 
L 3047 1100 
L 3047 0 
L 2419 0 
L 2419 1100 
L 313 1100 
L 313 1709 
L 2253 4666 
z
" transform="scale(0.015625)"/>
       </defs>
       <use xlink:href="#DejaVuSans-32"/>
       <use xlink:href="#DejaVuSans-2e" x="63.623047"/>
       <use xlink:href="#DejaVuSans-34" x="95.410156"/>
      </g>
     </g>
    </g>
    <g id="xtick_3">
     <g id="line2d_3">
      <g>
       <use xlink:href="#m7e5893f736" x="175.58029" y="307.584" style="stroke: #000000; stroke-width: 0.8"/>
      </g>
     </g>
     <g id="text_3">
      <!-- 2.6 -->
      <g transform="translate(167.628728 322.182437)scale(0.1 -0.1)">
       <defs>
        <path id="DejaVuSans-36" d="M 2113 2584 
Q 1688 2584 1439 2293 
Q 1191 2003 1191 1497 
Q 1191 994 1439 701 
Q 1688 409 2113 409 
Q 2538 409 2786 701 
Q 3034 994 3034 1497 
Q 3034 2003 2786 2293 
Q 2538 2584 2113 2584 
z
M 3366 4563 
L 3366 3988 
Q 3128 4100 2886 4159 
Q 2644 4219 2406 4219 
Q 1781 4219 1451 3797 
Q 1122 3375 1075 2522 
Q 1259 2794 1537 2939 
Q 1816 3084 2150 3084 
Q 2853 3084 3261 2657 
Q 3669 2231 3669 1497 
Q 3669 778 3244 343 
Q 2819 -91 2113 -91 
Q 1303 -91 875 529 
Q 447 1150 447 2328 
Q 447 3434 972 4092 
Q 1497 4750 2381 4750 
Q 2619 4750 2861 4703 
Q 3103 4656 3366 4563 
z
" transform="scale(0.015625)"/>
       </defs>
       <use xlink:href="#DejaVuSans-32"/>
       <use xlink:href="#DejaVuSans-2e" x="63.623047"/>
       <use xlink:href="#DejaVuSans-36" x="95.410156"/>
      </g>
     </g>
    </g>
    <g id="xtick_4">
     <g id="line2d_4">
      <g>
       <use xlink:href="#m7e5893f736" x="218.228809" y="307.584" style="stroke: #000000; stroke-width: 0.8"/>
      </g>
     </g>
     <g id="text_4">
      <!-- 2.8 -->
      <g transform="translate(210.277247 322.182437)scale(0.1 -0.1)">
       <defs>
        <path id="DejaVuSans-38" d="M 2034 2216 
Q 1584 2216 1326 1975 
Q 1069 1734 1069 1313 
Q 1069 891 1326 650 
Q 1584 409 2034 409 
Q 2484 409 2743 651 
Q 3003 894 3003 1313 
Q 3003 1734 2745 1975 
Q 2488 2216 2034 2216 
z
M 1403 2484 
Q 997 2584 770 2862 
Q 544 3141 544 3541 
Q 544 4100 942 4425 
Q 1341 4750 2034 4750 
Q 2731 4750 3128 4425 
Q 3525 4100 3525 3541 
Q 3525 3141 3298 2862 
Q 3072 2584 2669 2484 
Q 3125 2378 3379 2068 
Q 3634 1759 3634 1313 
Q 3634 634 3220 271 
Q 2806 -91 2034 -91 
Q 1263 -91 848 271 
Q 434 634 434 1313 
Q 434 1759 690 2068 
Q 947 2378 1403 2484 
z
M 1172 3481 
Q 1172 3119 1398 2916 
Q 1625 2713 2034 2713 
Q 2441 2713 2670 2916 
Q 2900 3119 2900 3481 
Q 2900 3844 2670 4047 
Q 2441 4250 2034 4250 
Q 1625 4250 1398 4047 
Q 1172 3844 1172 3481 
z
" transform="scale(0.015625)"/>
       </defs>
       <use xlink:href="#DejaVuSans-32"/>
       <use xlink:href="#DejaVuSans-2e" x="63.623047"/>
       <use xlink:href="#DejaVuSans-38" x="95.410156"/>
      </g>
     </g>
    </g>
    <g id="xtick_5">
     <g id="line2d_5">
      <g>
       <use xlink:href="#m7e5893f736" x="260.877328" y="307.584" style="stroke: #000000; stroke-width: 0.8"/>
      </g>
     </g>
     <g id="text_5">
      <!-- 3.0 -->
      <g transform="translate(252.925766 322.182437)scale(0.1 -0.1)">
       <defs>
        <path id="DejaVuSans-33" d="M 2597 2516 
Q 3050 2419 3304 2112 
Q 3559 1806 3559 1356 
Q 3559 666 3084 287 
Q 2609 -91 1734 -91 
Q 1441 -91 1130 -33 
Q 819 25 488 141 
L 488 750 
Q 750 597 1062 519 
Q 1375 441 1716 441 
Q 2309 441 2620 675 
Q 2931 909 2931 1356 
Q 2931 1769 2642 2001 
Q 2353 2234 1838 2234 
L 1294 2234 
L 1294 2753 
L 1863 2753 
Q 2328 2753 2575 2939 
Q 2822 3125 2822 3475 
Q 2822 3834 2567 4026 
Q 2313 4219 1838 4219 
Q 1578 4219 1281 4162 
Q 984 4106 628 3988 
L 628 4550 
Q 988 4650 1302 4700 
Q 1616 4750 1894 4750 
Q 2613 4750 3031 4423 
Q 3450 4097 3450 3541 
Q 3450 3153 3228 2886 
Q 3006 2619 2597 2516 
z
" transform="scale(0.015625)"/>
        <path id="DejaVuSans-30" d="M 2034 4250 
Q 1547 4250 1301 3770 
Q 1056 3291 1056 2328 
Q 1056 1369 1301 889 
Q 1547 409 2034 409 
Q 2525 409 2770 889 
Q 3016 1369 3016 2328 
Q 3016 3291 2770 3770 
Q 2525 4250 2034 4250 
z
M 2034 4750 
Q 2819 4750 3233 4129 
Q 3647 3509 3647 2328 
Q 3647 1150 3233 529 
Q 2819 -91 2034 -91 
Q 1250 -91 836 529 
Q 422 1150 422 2328 
Q 422 3509 836 4129 
Q 1250 4750 2034 4750 
z
" transform="scale(0.015625)"/>
       </defs>
       <use xlink:href="#DejaVuSans-33"/>
       <use xlink:href="#DejaVuSans-2e" x="63.623047"/>
       <use xlink:href="#DejaVuSans-30" x="95.410156"/>
      </g>
     </g>
    </g>
    <g id="xtick_6">
     <g id="line2d_6">
      <g>
       <use xlink:href="#m7e5893f736" x="303.525848" y="307.584" style="stroke: #000000; stroke-width: 0.8"/>
      </g>
     </g>
     <g id="text_6">
      <!-- 3.2 -->
      <g transform="translate(295.574285 322.182437)scale(0.1 -0.1)">
       <use xlink:href="#DejaVuSans-33"/>
       <use xlink:href="#DejaVuSans-2e" x="63.623047"/>
       <use xlink:href="#DejaVuSans-32" x="95.410156"/>
      </g>
     </g>
    </g>
    <g id="xtick_7">
     <g id="line2d_7">
      <g>
       <use xlink:href="#m7e5893f736" x="346.174367" y="307.584" style="stroke: #000000; stroke-width: 0.8"/>
      </g>
     </g>
     <g id="text_7">
      <!-- 3.4 -->
      <g transform="translate(338.222804 322.182437)scale(0.1 -0.1)">
       <use xlink:href="#DejaVuSans-33"/>
       <use xlink:href="#DejaVuSans-2e" x="63.623047"/>
       <use xlink:href="#DejaVuSans-34" x="95.410156"/>
      </g>
     </g>
    </g>
    <g id="xtick_8">
     <g id="line2d_8">
      <g>
       <use xlink:href="#m7e5893f736" x="388.822886" y="307.584" style="stroke: #000000; stroke-width: 0.8"/>
      </g>
     </g>
     <g id="text_8">
      <!-- 3.6 -->
      <g transform="translate(380.871323 322.182437)scale(0.1 -0.1)">
       <use xlink:href="#DejaVuSans-33"/>
       <use xlink:href="#DejaVuSans-2e" x="63.623047"/>
       <use xlink:href="#DejaVuSans-36" x="95.410156"/>
      </g>
     </g>
    </g>
    <g id="text_9">
     <!-- Frequencies (Hz) -->
     <g transform="translate(194.344375 335.860562)scale(0.1 -0.1)">
      <defs>
       <path id="DejaVuSans-46" d="M 628 4666 
L 3309 4666 
L 3309 4134 
L 1259 4134 
L 1259 2759 
L 3109 2759 
L 3109 2228 
L 1259 2228 
L 1259 0 
L 628 0 
L 628 4666 
z
" transform="scale(0.015625)"/>
       <path id="DejaVuSans-72" d="M 2631 2963 
Q 2534 3019 2420 3045 
Q 2306 3072 2169 3072 
Q 1681 3072 1420 2755 
Q 1159 2438 1159 1844 
L 1159 0 
L 581 0 
L 581 3500 
L 1159 3500 
L 1159 2956 
Q 1341 3275 1631 3429 
Q 1922 3584 2338 3584 
Q 2397 3584 2469 3576 
Q 2541 3569 2628 3553 
L 2631 2963 
z
" transform="scale(0.015625)"/>
       <path id="DejaVuSans-65" d="M 3597 1894 
L 3597 1613 
L 953 1613 
Q 991 1019 1311 708 
Q 1631 397 2203 397 
Q 2534 397 2845 478 
Q 3156 559 3463 722 
L 3463 178 
Q 3153 47 2828 -22 
Q 2503 -91 2169 -91 
Q 1331 -91 842 396 
Q 353 884 353 1716 
Q 353 2575 817 3079 
Q 1281 3584 2069 3584 
Q 2775 3584 3186 3129 
Q 3597 2675 3597 1894 
z
M 3022 2063 
Q 3016 2534 2758 2815 
Q 2500 3097 2075 3097 
Q 1594 3097 1305 2825 
Q 1016 2553 972 2059 
L 3022 2063 
z
" transform="scale(0.015625)"/>
       <path id="DejaVuSans-71" d="M 947 1747 
Q 947 1113 1208 752 
Q 1469 391 1925 391 
Q 2381 391 2643 752 
Q 2906 1113 2906 1747 
Q 2906 2381 2643 2742 
Q 2381 3103 1925 3103 
Q 1469 3103 1208 2742 
Q 947 2381 947 1747 
z
M 2906 525 
Q 2725 213 2448 61 
Q 2172 -91 1784 -91 
Q 1150 -91 751 415 
Q 353 922 353 1747 
Q 353 2572 751 3078 
Q 1150 3584 1784 3584 
Q 2172 3584 2448 3432 
Q 2725 3281 2906 2969 
L 2906 3500 
L 3481 3500 
L 3481 -1331 
L 2906 -1331 
L 2906 525 
z
" transform="scale(0.015625)"/>
       <path id="DejaVuSans-75" d="M 544 1381 
L 544 3500 
L 1119 3500 
L 1119 1403 
Q 1119 906 1312 657 
Q 1506 409 1894 409 
Q 2359 409 2629 706 
Q 2900 1003 2900 1516 
L 2900 3500 
L 3475 3500 
L 3475 0 
L 2900 0 
L 2900 538 
Q 2691 219 2414 64 
Q 2138 -91 1772 -91 
Q 1169 -91 856 284 
Q 544 659 544 1381 
z
M 1991 3584 
L 1991 3584 
z
" transform="scale(0.015625)"/>
       <path id="DejaVuSans-6e" d="M 3513 2113 
L 3513 0 
L 2938 0 
L 2938 2094 
Q 2938 2591 2744 2837 
Q 2550 3084 2163 3084 
Q 1697 3084 1428 2787 
Q 1159 2491 1159 1978 
L 1159 0 
L 581 0 
L 581 3500 
L 1159 3500 
L 1159 2956 
Q 1366 3272 1645 3428 
Q 1925 3584 2291 3584 
Q 2894 3584 3203 3211 
Q 3513 2838 3513 2113 
z
" transform="scale(0.015625)"/>
       <path id="DejaVuSans-63" d="M 3122 3366 
L 3122 2828 
Q 2878 2963 2633 3030 
Q 2388 3097 2138 3097 
Q 1578 3097 1268 2742 
Q 959 2388 959 1747 
Q 959 1106 1268 751 
Q 1578 397 2138 397 
Q 2388 397 2633 464 
Q 2878 531 3122 666 
L 3122 134 
Q 2881 22 2623 -34 
Q 2366 -91 2075 -91 
Q 1284 -91 818 406 
Q 353 903 353 1747 
Q 353 2603 823 3093 
Q 1294 3584 2113 3584 
Q 2378 3584 2631 3529 
Q 2884 3475 3122 3366 
z
" transform="scale(0.015625)"/>
       <path id="DejaVuSans-69" d="M 603 3500 
L 1178 3500 
L 1178 0 
L 603 0 
L 603 3500 
z
M 603 4863 
L 1178 4863 
L 1178 4134 
L 603 4134 
L 603 4863 
z
" transform="scale(0.015625)"/>
       <path id="DejaVuSans-73" d="M 2834 3397 
L 2834 2853 
Q 2591 2978 2328 3040 
Q 2066 3103 1784 3103 
Q 1356 3103 1142 2972 
Q 928 2841 928 2578 
Q 928 2378 1081 2264 
Q 1234 2150 1697 2047 
L 1894 2003 
Q 2506 1872 2764 1633 
Q 3022 1394 3022 966 
Q 3022 478 2636 193 
Q 2250 -91 1575 -91 
Q 1294 -91 989 -36 
Q 684 19 347 128 
L 347 722 
Q 666 556 975 473 
Q 1284 391 1588 391 
Q 1994 391 2212 530 
Q 2431 669 2431 922 
Q 2431 1156 2273 1281 
Q 2116 1406 1581 1522 
L 1381 1569 
Q 847 1681 609 1914 
Q 372 2147 372 2553 
Q 372 3047 722 3315 
Q 1072 3584 1716 3584 
Q 2034 3584 2315 3537 
Q 2597 3491 2834 3397 
z
" transform="scale(0.015625)"/>
       <path id="DejaVuSans-20" transform="scale(0.015625)"/>
       <path id="DejaVuSans-28" d="M 1984 4856 
Q 1566 4138 1362 3434 
Q 1159 2731 1159 2009 
Q 1159 1288 1364 580 
Q 1569 -128 1984 -844 
L 1484 -844 
Q 1016 -109 783 600 
Q 550 1309 550 2009 
Q 550 2706 781 3412 
Q 1013 4119 1484 4856 
L 1984 4856 
z
" transform="scale(0.015625)"/>
       <path id="DejaVuSans-48" d="M 628 4666 
L 1259 4666 
L 1259 2753 
L 3553 2753 
L 3553 4666 
L 4184 4666 
L 4184 0 
L 3553 0 
L 3553 2222 
L 1259 2222 
L 1259 0 
L 628 0 
L 628 4666 
z
" transform="scale(0.015625)"/>
       <path id="DejaVuSans-7a" d="M 353 3500 
L 3084 3500 
L 3084 2975 
L 922 459 
L 3084 459 
L 3084 0 
L 275 0 
L 275 525 
L 2438 3041 
L 353 3041 
L 353 3500 
z
" transform="scale(0.015625)"/>
       <path id="DejaVuSans-29" d="M 513 4856 
L 1013 4856 
Q 1481 4119 1714 3412 
Q 1947 2706 1947 2009 
Q 1947 1309 1714 600 
Q 1481 -109 1013 -844 
L 513 -844 
Q 928 -128 1133 580 
Q 1338 1288 1338 2009 
Q 1338 2731 1133 3434 
Q 928 4138 513 4856 
z
" transform="scale(0.015625)"/>
      </defs>
      <use xlink:href="#DejaVuSans-46"/>
      <use xlink:href="#DejaVuSans-72" x="50.269531"/>
      <use xlink:href="#DejaVuSans-65" x="89.132812"/>
      <use xlink:href="#DejaVuSans-71" x="150.65625"/>
      <use xlink:href="#DejaVuSans-75" x="214.132812"/>
      <use xlink:href="#DejaVuSans-65" x="277.511719"/>
      <use xlink:href="#DejaVuSans-6e" x="339.035156"/>
      <use xlink:href="#DejaVuSans-63" x="402.414062"/>
      <use xlink:href="#DejaVuSans-69" x="457.394531"/>
      <use xlink:href="#DejaVuSans-65" x="485.177734"/>
      <use xlink:href="#DejaVuSans-73" x="546.701172"/>
      <use xlink:href="#DejaVuSans-20" x="598.800781"/>
      <use xlink:href="#DejaVuSans-28" x="630.587891"/>
      <use xlink:href="#DejaVuSans-48" x="669.601562"/>
      <use xlink:href="#DejaVuSans-7a" x="744.796875"/>
      <use xlink:href="#DejaVuSans-29" x="797.287109"/>
     </g>
    </g>
    <g id="text_10">
     <!-- 1e14 -->
     <g transform="translate(389.479375 334.860562)scale(0.1 -0.1)">
      <defs>
       <path id="DejaVuSans-31" d="M 794 531 
L 1825 531 
L 1825 4091 
L 703 3866 
L 703 4441 
L 1819 4666 
L 2450 4666 
L 2450 531 
L 3481 531 
L 3481 0 
L 794 0 
L 794 531 
z
" transform="scale(0.015625)"/>
      </defs>
      <use xlink:href="#DejaVuSans-31"/>
      <use xlink:href="#DejaVuSans-65" x="63.623047"/>
      <use xlink:href="#DejaVuSans-31" x="125.146484"/>
      <use xlink:href="#DejaVuSans-34" x="188.769531"/>
     </g>
    </g>
   </g>
   <g id="matplotlib.axis_2">
    <g id="ytick_1">
     <g id="line2d_9">
      <defs>
       <path id="med8ab5f581" d="M 0 0 
L -3.5 0 
" style="stroke: #000000; stroke-width: 0.8"/>
      </defs>
      <g>
       <use xlink:href="#med8ab5f581" x="57.6" y="295.488" style="stroke: #000000; stroke-width: 0.8"/>
      </g>
     </g>
     <g id="text_11">
      <!-- 0 -->
      <g transform="translate(44.2375 299.287219)scale(0.1 -0.1)">
       <use xlink:href="#DejaVuSans-30"/>
      </g>
     </g>
    </g>
    <g id="ytick_2">
     <g id="line2d_10">
      <g>
       <use xlink:href="#med8ab5f581" x="57.6" y="248.639518" style="stroke: #000000; stroke-width: 0.8"/>
      </g>
     </g>
     <g id="text_12">
      <!-- 5000 -->
      <g transform="translate(25.15 252.438736)scale(0.1 -0.1)">
       <defs>
        <path id="DejaVuSans-35" d="M 691 4666 
L 3169 4666 
L 3169 4134 
L 1269 4134 
L 1269 2991 
Q 1406 3038 1543 3061 
Q 1681 3084 1819 3084 
Q 2600 3084 3056 2656 
Q 3513 2228 3513 1497 
Q 3513 744 3044 326 
Q 2575 -91 1722 -91 
Q 1428 -91 1123 -41 
Q 819 9 494 109 
L 494 744 
Q 775 591 1075 516 
Q 1375 441 1709 441 
Q 2250 441 2565 725 
Q 2881 1009 2881 1497 
Q 2881 1984 2565 2268 
Q 2250 2553 1709 2553 
Q 1456 2553 1204 2497 
Q 953 2441 691 2322 
L 691 4666 
z
" transform="scale(0.015625)"/>
       </defs>
       <use xlink:href="#DejaVuSans-35"/>
       <use xlink:href="#DejaVuSans-30" x="63.623047"/>
       <use xlink:href="#DejaVuSans-30" x="127.246094"/>
       <use xlink:href="#DejaVuSans-30" x="190.869141"/>
      </g>
     </g>
    </g>
    <g id="ytick_3">
     <g id="line2d_11">
      <g>
       <use xlink:href="#med8ab5f581" x="57.6" y="201.791035" style="stroke: #000000; stroke-width: 0.8"/>
      </g>
     </g>
     <g id="text_13">
      <!-- 10000 -->
      <g transform="translate(18.7875 205.590254)scale(0.1 -0.1)">
       <use xlink:href="#DejaVuSans-31"/>
       <use xlink:href="#DejaVuSans-30" x="63.623047"/>
       <use xlink:href="#DejaVuSans-30" x="127.246094"/>
       <use xlink:href="#DejaVuSans-30" x="190.869141"/>
       <use xlink:href="#DejaVuSans-30" x="254.492188"/>
      </g>
     </g>
    </g>
    <g id="ytick_4">
     <g id="line2d_12">
      <g>
       <use xlink:href="#med8ab5f581" x="57.6" y="154.942553" style="stroke: #000000; stroke-width: 0.8"/>
      </g>
     </g>
     <g id="text_14">
      <!-- 15000 -->
      <g transform="translate(18.7875 158.741772)scale(0.1 -0.1)">
       <use xlink:href="#DejaVuSans-31"/>
       <use xlink:href="#DejaVuSans-35" x="63.623047"/>
       <use xlink:href="#DejaVuSans-30" x="127.246094"/>
       <use xlink:href="#DejaVuSans-30" x="190.869141"/>
       <use xlink:href="#DejaVuSans-30" x="254.492188"/>
      </g>
     </g>
    </g>
    <g id="ytick_5">
     <g id="line2d_13">
      <g>
       <use xlink:href="#med8ab5f581" x="57.6" y="108.094071" style="stroke: #000000; stroke-width: 0.8"/>
      </g>
     </g>
     <g id="text_15">
      <!-- 20000 -->
      <g transform="translate(18.7875 111.893289)scale(0.1 -0.1)">
       <use xlink:href="#DejaVuSans-32"/>
       <use xlink:href="#DejaVuSans-30" x="63.623047"/>
       <use xlink:href="#DejaVuSans-30" x="127.246094"/>
       <use xlink:href="#DejaVuSans-30" x="190.869141"/>
       <use xlink:href="#DejaVuSans-30" x="254.492188"/>
      </g>
     </g>
    </g>
    <g id="ytick_6">
     <g id="line2d_14">
      <g>
       <use xlink:href="#med8ab5f581" x="57.6" y="61.245588" style="stroke: #000000; stroke-width: 0.8"/>
      </g>
     </g>
     <g id="text_16">
      <!-- 25000 -->
      <g transform="translate(18.7875 65.044807)scale(0.1 -0.1)">
       <use xlink:href="#DejaVuSans-32"/>
       <use xlink:href="#DejaVuSans-35" x="63.623047"/>
       <use xlink:href="#DejaVuSans-30" x="127.246094"/>
       <use xlink:href="#DejaVuSans-30" x="190.869141"/>
       <use xlink:href="#DejaVuSans-30" x="254.492188"/>
      </g>
     </g>
    </g>
   </g>
   <g id="line2d_15">
    <path d="M 73.832727 295.422902 
L 74.149928 295.485324 
L 74.625728 295.179192 
L 75.577329 295.457857 
L 76.52893 295.408634 
L 76.68753 295.47398 
L 77.321931 294.89849 
L 77.797731 295.362598 
L 78.273532 293.766167 
L 78.907933 295.459249 
L 79.542333 295.398253 
L 79.859534 295.473206 
L 80.335334 295.051537 
L 80.652535 295.258384 
L 80.969735 295.488 
L 81.445535 295.480734 
L 81.921336 295.115007 
L 82.238536 295.244598 
L 82.714337 295.436374 
L 83.507338 295.488 
L 83.824538 294.950735 
L 84.141738 294.466653 
L 84.617539 295.448204 
L 85.093339 295.488 
L 86.362141 295.383971 
L 86.837941 295.003815 
L 87.313742 295.462861 
L 88.106742 295.309744 
L 88.582543 295.488 
L 88.899743 295.488 
L 89.058343 295.312097 
L 89.534144 294.310768 
L 90.168545 295.488 
L 90.644345 295.443896 
L 91.120146 294.214648 
L 91.278746 294.314586 
L 91.754546 295.488 
L 92.864748 295.423204 
L 93.499148 295.262488 
L 94.133549 295.488 
L 95.08515 295.488 
L 95.719551 294.899618 
L 96.353951 295.488 
L 96.988352 295.410673 
L 97.464152 295.298045 
L 97.939953 295.376369 
L 98.574354 295.049136 
L 99.050154 295.476761 
L 99.684555 294.999031 
L 100.318955 295.469961 
L 101.429157 295.393303 
L 102.380758 295.488 
L 102.697958 295.364662 
L 103.173758 295.11743 
L 103.649559 295.457679 
L 104.12536 295.26538 
L 104.28396 295.189282 
L 105.394161 295.47555 
L 105.711361 295.108392 
L 106.028562 294.643423 
L 106.821562 295.469656 
L 107.773163 295.483439 
L 108.407564 295.488 
L 109.041965 294.665151 
L 109.517765 295.352026 
L 109.676365 295.36612 
L 110.152166 294.4658 
L 110.310766 294.537034 
L 110.786567 295.435704 
L 111.262367 295.488 
L 112.689769 295.406933 
L 113.324169 295.313535 
L 113.79997 295.472303 
L 114.11717 294.972671 
L 114.43437 294.367612 
L 114.910171 295.182629 
L 115.068771 295.484409 
L 115.703172 295.457876 
L 116.337573 294.5037 
L 116.971973 295.230369 
L 117.923574 295.407283 
L 118.240775 295.454666 
L 119.192376 295.158985 
L 119.509576 295.150188 
L 120.302577 295.278596 
L 121.095578 295.313224 
L 121.412778 295.284464 
L 121.888578 295.064478 
L 122.99878 295.488 
L 123.31598 295.386587 
L 123.79178 295.023049 
L 125.060582 295.482331 
L 125.853583 294.783076 
L 126.329383 295.423552 
L 126.487983 295.302577 
L 126.963784 294.505769 
L 127.122384 294.579109 
L 127.598184 295.373394 
L 127.756785 295.421884 
L 128.391185 295.047086 
L 129.501387 295.456195 
L 129.659987 295.451575 
L 130.294387 294.988126 
L 131.404589 295.44237 
L 131.563189 295.484544 
L 132.197589 294.763367 
L 132.51479 295.047476 
L 132.83199 295.416649 
L 132.99059 295.398009 
L 133.624991 294.941261 
L 134.259392 295.488 
L 135.686793 295.393811 
L 136.321194 295.093726 
L 136.955594 295.415382 
L 137.748595 295.341715 
L 138.541596 295.488 
L 138.858796 295.488 
L 139.334597 294.974418 
L 139.651797 294.751881 
L 140.286198 295.483098 
L 141.237799 295.179237 
L 141.7136 294.991565 
L 143.934002 295.398212 
L 144.409802 295.246374 
L 145.044203 295.460109 
L 145.837204 294.905126 
L 146.471605 295.473126 
L 147.106005 294.608269 
L 147.264605 294.680072 
L 147.899006 295.451535 
L 148.533407 294.881066 
L 149.167807 295.167434 
L 149.960808 295.484725 
L 150.753809 295.029307 
L 151.38821 295.486736 
L 152.181211 295.051712 
L 152.815611 295.272678 
L 153.608612 294.997968 
L 154.401613 295.488 
L 155.353214 295.377919 
L 155.829015 295.148516 
L 156.463415 294.603487 
L 157.097816 294.594964 
L 158.049417 295.276591 
L 159.159618 295.067248 
L 159.476818 295.036539 
L 160.58702 295.244794 
L 160.74562 295.290867 
L 161.22142 294.832614 
L 161.538621 294.511427 
L 162.331621 295.434182 
L 163.124622 294.877146 
L 164.076223 295.065093 
L 164.552024 295.199511 
L 165.345025 294.711917 
L 165.979425 294.654375 
L 166.772426 295.281945 
L 167.406827 294.129242 
L 167.565427 294.078243 
L 168.199828 295.365087 
L 168.358428 295.338705 
L 168.992829 294.372301 
L 169.310029 294.77395 
L 169.785829 295.479206 
L 170.57883 294.376875 
L 171.213231 295.343339 
L 171.371831 295.363911 
L 172.006232 294.126966 
L 172.164832 294.077766 
L 172.799233 294.686329 
L 173.116433 294.488085 
L 173.592233 294.062585 
L 174.226634 294.41559 
L 174.543834 294.482317 
L 175.495435 294.350059 
L 175.971236 294.311608 
L 176.764237 292.931906 
L 177.557238 294.37776 
L 178.350238 293.483609 
L 179.143239 294.004277 
L 179.93624 293.152019 
L 180.570641 293.588014 
L 180.729241 293.553149 
L 181.522242 292.511302 
L 182.315243 293.08847 
L 183.108244 292.512052 
L 183.901244 292.664626 
L 184.694245 291.474088 
L 185.487246 291.85559 
L 186.756047 290.983105 
L 187.549048 290.697493 
L 188.024849 290.692548 
L 188.659249 291.100919 
L 188.97645 290.406832 
L 189.61085 288.961588 
L 190.245251 289.600674 
L 190.403851 289.594579 
L 191.196852 287.99981 
L 191.989853 288.448103 
L 193.100054 287.706783 
L 193.893055 286.956084 
L 194.844656 285.875042 
L 195.479057 285.210929 
L 196.430658 283.971923 
L 197.065058 283.298607 
L 197.858059 281.150615 
L 198.65106 281.44257 
L 199.126861 280.595515 
L 199.761261 279.575075 
L 200.554262 278.693659 
L 202.933265 274.781384 
L 204.043466 271.078723 
L 204.995067 270.009578 
L 205.470867 269.592801 
L 205.788068 268.648168 
L 206.422468 266.434676 
L 207.215469 266.027703 
L 207.53267 264.460146 
L 208.32567 260.307751 
L 208.960071 258.809186 
L 209.277271 256.831354 
L 209.911672 252.238106 
L 210.863273 251.158782 
L 211.656274 251.184917 
L 212.449275 252.454598 
L 212.607875 252.341199 
L 213.718076 245.203574 
L 215.304078 232.86607 
L 216.255679 229.330078 
L 217.04868 224.811516 
L 218.000281 222.883359 
L 219.269082 217.124598 
L 219.903483 213.509884 
L 221.806685 200.327433 
L 222.441085 198.324844 
L 222.599686 198.42326 
L 223.392686 200.441491 
L 223.868487 199.198667 
L 224.344287 197.81058 
L 225.295888 190.735155 
L 226.40609 165.748825 
L 227.19909 153.960887 
L 227.992091 136.642421 
L 228.150691 135.892482 
L 229.260893 143.523409 
L 230.846894 151.296756 
L 231.322695 140.061798 
L 233.543097 80.557586 
L 233.860298 73.915526 
L 234.653298 67.637121 
L 235.129099 78.196982 
L 236.3979 106.426204 
L 236.715101 111.569431 
L 237.825302 119.336281 
L 238.459702 122.515818 
L 238.618303 122.363767 
L 239.728504 115.906525 
L 240.362904 113.506802 
L 240.521505 113.646281 
L 241.473106 126.286867 
L 242.424707 121.671583 
L 243.534908 53.568 
L 244.327909 67.275744 
L 244.645109 78.618622 
L 245.43811 108.518624 
L 246.389711 79.756455 
L 247.341312 87.225321 
L 247.975713 101.745739 
L 248.610113 115.1808 
L 250.354715 142.832113 
L 250.671915 137.292542 
L 251.464916 120.998728 
L 252.575117 108.652631 
L 253.368118 96.114678 
L 253.526718 98.296356 
L 254.79552 139.418471 
L 255.747121 171.439611 
L 256.540122 189.665098 
L 257.650323 180.300199 
L 258.760524 166.035647 
L 259.553525 159.15749 
L 259.870725 167.136441 
L 260.822326 192.617894 
L 262.408328 218.816806 
L 262.725528 223.42312 
L 263.677129 221.184921 
L 263.835729 220.250035 
L 264.945931 209.633271 
L 265.897532 204.666699 
L 267.166333 218.373107 
L 268.593735 239.183183 
L 269.069535 246.56006 
L 270.021136 247.657917 
L 270.179736 247.603368 
L 271.289937 243.7375 
L 272.241538 242.716154 
L 272.558739 244.787763 
L 273.66894 252.58318 
L 274.937741 259.951929 
L 275.572142 263.908746 
L 276.682343 266.453559 
L 277.792544 265.056192 
L 278.744145 265.771322 
L 279.061346 266.866221 
L 281.281748 276.078608 
L 282.233349 278.117872 
L 283.819351 278.995206 
L 284.929552 279.645622 
L 285.405352 279.876339 
L 285.563953 280.118322 
L 286.674154 283.276917 
L 289.053156 285.124805 
L 290.004757 285.043527 
L 291.273559 286.530314 
L 292.22516 286.207335 
L 292.38376 286.316326 
L 293.493961 288.294412 
L 294.762762 288.625288 
L 295.872964 289.45988 
L 297.141765 289.743192 
L 298.251966 290.320296 
L 299.362167 290.551835 
L 300.472368 291.592158 
L 301.58257 291.308099 
L 302.21697 291.895921 
L 302.851371 292.442263 
L 303.961572 291.968975 
L 304.913173 292.776261 
L 305.230373 292.977721 
L 306.499175 292.589032 
L 308.085177 293.21322 
L 309.036778 293.586359 
L 311.73298 293.702282 
L 312.367381 293.681978 
L 313.160382 294.490561 
L 313.636182 294.955326 
L 314.904984 293.875366 
L 316.173785 293.920405 
L 317.918387 294.759653 
L 318.552788 295.100511 
L 319.821589 293.697257 
L 321.09039 294.681844 
L 322.517792 294.57303 
L 323.627993 294.829595 
L 326.165596 294.465761 
L 327.434397 294.904153 
L 328.703198 294.615459 
L 329.8134 294.826543 
L 329.972 295.488 
L 398.487273 295.488 
L 398.487273 295.488 
" clip-path="url(#pcf7d4392ab)" style="fill: none; stroke: #1f77b4; stroke-width: 1.5; stroke-linecap: square"/>
   </g>
   <g id="patch_3">
    <path d="M 57.6 307.584 
L 57.6 41.472 
" style="fill: none; stroke: #000000; stroke-width: 0.8; stroke-linejoin: miter; stroke-linecap: square"/>
   </g>
   <g id="patch_4">
    <path d="M 414.72 307.584 
L 414.72 41.472 
" style="fill: none; stroke: #000000; stroke-width: 0.8; stroke-linejoin: miter; stroke-linecap: square"/>
   </g>
   <g id="patch_5">
    <path d="M 57.6 307.584 
L 414.72 307.584 
" style="fill: none; stroke: #000000; stroke-width: 0.8; stroke-linejoin: miter; stroke-linecap: square"/>
   </g>
   <g id="patch_6">
    <path d="M 57.6 41.472 
L 414.72 41.472 
" style="fill: none; stroke: #000000; stroke-width: 0.8; stroke-linejoin: miter; stroke-linecap: square"/>
   </g>
   <g id="text_17">
    <!-- Final Data -->
    <g transform="translate(206.098125 35.472)scale(0.12 -0.12)">
     <defs>
      <path id="DejaVuSans-61" d="M 2194 1759 
Q 1497 1759 1228 1600 
Q 959 1441 959 1056 
Q 959 750 1161 570 
Q 1363 391 1709 391 
Q 2188 391 2477 730 
Q 2766 1069 2766 1631 
L 2766 1759 
L 2194 1759 
z
M 3341 1997 
L 3341 0 
L 2766 0 
L 2766 531 
Q 2569 213 2275 61 
Q 1981 -91 1556 -91 
Q 1019 -91 701 211 
Q 384 513 384 1019 
Q 384 1609 779 1909 
Q 1175 2209 1959 2209 
L 2766 2209 
L 2766 2266 
Q 2766 2663 2505 2880 
Q 2244 3097 1772 3097 
Q 1472 3097 1187 3025 
Q 903 2953 641 2809 
L 641 3341 
Q 956 3463 1253 3523 
Q 1550 3584 1831 3584 
Q 2591 3584 2966 3190 
Q 3341 2797 3341 1997 
z
" transform="scale(0.015625)"/>
      <path id="DejaVuSans-6c" d="M 603 4863 
L 1178 4863 
L 1178 0 
L 603 0 
L 603 4863 
z
" transform="scale(0.015625)"/>
      <path id="DejaVuSans-44" d="M 1259 4147 
L 1259 519 
L 2022 519 
Q 2988 519 3436 956 
Q 3884 1394 3884 2338 
Q 3884 3275 3436 3711 
Q 2988 4147 2022 4147 
L 1259 4147 
z
M 628 4666 
L 1925 4666 
Q 3281 4666 3915 4102 
Q 4550 3538 4550 2338 
Q 4550 1131 3912 565 
Q 3275 0 1925 0 
L 628 0 
L 628 4666 
z
" transform="scale(0.015625)"/>
      <path id="DejaVuSans-74" d="M 1172 4494 
L 1172 3500 
L 2356 3500 
L 2356 3053 
L 1172 3053 
L 1172 1153 
Q 1172 725 1289 603 
Q 1406 481 1766 481 
L 2356 481 
L 2356 0 
L 1766 0 
Q 1100 0 847 248 
Q 594 497 594 1153 
L 594 3053 
L 172 3053 
L 172 3500 
L 594 3500 
L 594 4494 
L 1172 4494 
z
" transform="scale(0.015625)"/>
     </defs>
     <use xlink:href="#DejaVuSans-46"/>
     <use xlink:href="#DejaVuSans-69" x="50.269531"/>
     <use xlink:href="#DejaVuSans-6e" x="78.052734"/>
     <use xlink:href="#DejaVuSans-61" x="141.431641"/>
     <use xlink:href="#DejaVuSans-6c" x="202.710938"/>
     <use xlink:href="#DejaVuSans-20" x="230.494141"/>
     <use xlink:href="#DejaVuSans-44" x="262.28125"/>
     <use xlink:href="#DejaVuSans-61" x="339.283203"/>
     <use xlink:href="#DejaVuSans-74" x="400.5625"/>
     <use xlink:href="#DejaVuSans-61" x="439.771484"/>
    </g>
   </g>
  </g>
 </g>
 <defs>
  <clipPath id="pcf7d4392ab">
   <rect x="57.6" y="41.472" width="357.12" height="266.112"/>
  </clipPath>
 </defs>
</svg>
