<?xml version="1.0" encoding="utf-8" standalone="no"?>
<!DOCTYPE svg PUBLIC "-//W3C//DTD SVG 1.1//EN"
  "http://www.w3.org/Graphics/SVG/1.1/DTD/svg11.dtd">
<svg xmlns:xlink="http://www.w3.org/1999/xlink" width="460.8pt" height="345.6pt" viewBox="0 0 460.8 345.6" xmlns="http://www.w3.org/2000/svg" version="1.1">
 <metadata>
  <rdf:RDF xmlns:dc="http://purl.org/dc/elements/1.1/" xmlns:cc="http://creativecommons.org/ns#" xmlns:rdf="http://www.w3.org/1999/02/22-rdf-syntax-ns#">
   <cc:Work>
    <dc:type rdf:resource="http://purl.org/dc/dcmitype/StillImage"/>
    <dc:date>2022-01-25T18:20:39.327065</dc:date>
    <dc:format>image/svg+xml</dc:format>
    <dc:creator>
     <cc:Agent>
      <dc:title>Matplotlib v3.5.1, https://matplotlib.org/</dc:title>
     </cc:Agent>
    </dc:creator>
   </cc:Work>
  </rdf:RDF>
 </metadata>
 <defs>
  <style type="text/css">*{stroke-linejoin: round; stroke-linecap: butt}</style>
 </defs>
 <g id="figure_1">
  <g id="patch_1">
   <path d="M 0 345.6 
L 460.8 345.6 
L 460.8 0 
L 0 0 
z
" style="fill: #ffffff"/>
  </g>
  <g id="axes_1">
   <g id="patch_2">
    <path d="M 57.6 307.584 
L 414.72 307.584 
L 414.72 41.472 
L 57.6 41.472 
z
" style="fill: #ffffff"/>
   </g>
   <g id="matplotlib.axis_1">
    <g id="xtick_1">
     <g id="line2d_1">
      <defs>
       <path id="m3236798f92" d="M 0 0 
L 0 3.5 
" style="stroke: #000000; stroke-width: 0.8"/>
      </defs>
      <g>
       <use xlink:href="#m3236798f92" x="96.290126" y="307.584" style="stroke: #000000; stroke-width: 0.8"/>
      </g>
     </g>
     <g id="text_1">
      <!-- 1.4 -->
      <g transform="translate(88.338563 322.182437)scale(0.1 -0.1)">
       <defs>
        <path id="DejaVuSans-31" d="M 794 531 
L 1825 531 
L 1825 4091 
L 703 3866 
L 703 4441 
L 1819 4666 
L 2450 4666 
L 2450 531 
L 3481 531 
L 3481 0 
L 794 0 
L 794 531 
z
" transform="scale(0.015625)"/>
        <path id="DejaVuSans-2e" d="M 684 794 
L 1344 794 
L 1344 0 
L 684 0 
L 684 794 
z
" transform="scale(0.015625)"/>
        <path id="DejaVuSans-34" d="M 2419 4116 
L 825 1625 
L 2419 1625 
L 2419 4116 
z
M 2253 4666 
L 3047 4666 
L 3047 1625 
L 3713 1625 
L 3713 1100 
L 3047 1100 
L 3047 0 
L 2419 0 
L 2419 1100 
L 313 1100 
L 313 1709 
L 2253 4666 
z
" transform="scale(0.015625)"/>
       </defs>
       <use xlink:href="#DejaVuSans-31"/>
       <use xlink:href="#DejaVuSans-2e" x="63.623047"/>
       <use xlink:href="#DejaVuSans-34" x="95.410156"/>
      </g>
     </g>
    </g>
    <g id="xtick_2">
     <g id="line2d_2">
      <g>
       <use xlink:href="#m3236798f92" x="164.167352" y="307.584" style="stroke: #000000; stroke-width: 0.8"/>
      </g>
     </g>
     <g id="text_2">
      <!-- 1.6 -->
      <g transform="translate(156.21579 322.182437)scale(0.1 -0.1)">
       <defs>
        <path id="DejaVuSans-36" d="M 2113 2584 
Q 1688 2584 1439 2293 
Q 1191 2003 1191 1497 
Q 1191 994 1439 701 
Q 1688 409 2113 409 
Q 2538 409 2786 701 
Q 3034 994 3034 1497 
Q 3034 2003 2786 2293 
Q 2538 2584 2113 2584 
z
M 3366 4563 
L 3366 3988 
Q 3128 4100 2886 4159 
Q 2644 4219 2406 4219 
Q 1781 4219 1451 3797 
Q 1122 3375 1075 2522 
Q 1259 2794 1537 2939 
Q 1816 3084 2150 3084 
Q 2853 3084 3261 2657 
Q 3669 2231 3669 1497 
Q 3669 778 3244 343 
Q 2819 -91 2113 -91 
Q 1303 -91 875 529 
Q 447 1150 447 2328 
Q 447 3434 972 4092 
Q 1497 4750 2381 4750 
Q 2619 4750 2861 4703 
Q 3103 4656 3366 4563 
z
" transform="scale(0.015625)"/>
       </defs>
       <use xlink:href="#DejaVuSans-31"/>
       <use xlink:href="#DejaVuSans-2e" x="63.623047"/>
       <use xlink:href="#DejaVuSans-36" x="95.410156"/>
      </g>
     </g>
    </g>
    <g id="xtick_3">
     <g id="line2d_3">
      <g>
       <use xlink:href="#m3236798f92" x="232.044579" y="307.584" style="stroke: #000000; stroke-width: 0.8"/>
      </g>
     </g>
     <g id="text_3">
      <!-- 1.8 -->
      <g transform="translate(224.093016 322.182437)scale(0.1 -0.1)">
       <defs>
        <path id="DejaVuSans-38" d="M 2034 2216 
Q 1584 2216 1326 1975 
Q 1069 1734 1069 1313 
Q 1069 891 1326 650 
Q 1584 409 2034 409 
Q 2484 409 2743 651 
Q 3003 894 3003 1313 
Q 3003 1734 2745 1975 
Q 2488 2216 2034 2216 
z
M 1403 2484 
Q 997 2584 770 2862 
Q 544 3141 544 3541 
Q 544 4100 942 4425 
Q 1341 4750 2034 4750 
Q 2731 4750 3128 4425 
Q 3525 4100 3525 3541 
Q 3525 3141 3298 2862 
Q 3072 2584 2669 2484 
Q 3125 2378 3379 2068 
Q 3634 1759 3634 1313 
Q 3634 634 3220 271 
Q 2806 -91 2034 -91 
Q 1263 -91 848 271 
Q 434 634 434 1313 
Q 434 1759 690 2068 
Q 947 2378 1403 2484 
z
M 1172 3481 
Q 1172 3119 1398 2916 
Q 1625 2713 2034 2713 
Q 2441 2713 2670 2916 
Q 2900 3119 2900 3481 
Q 2900 3844 2670 4047 
Q 2441 4250 2034 4250 
Q 1625 4250 1398 4047 
Q 1172 3844 1172 3481 
z
" transform="scale(0.015625)"/>
       </defs>
       <use xlink:href="#DejaVuSans-31"/>
       <use xlink:href="#DejaVuSans-2e" x="63.623047"/>
       <use xlink:href="#DejaVuSans-38" x="95.410156"/>
      </g>
     </g>
    </g>
    <g id="xtick_4">
     <g id="line2d_4">
      <g>
       <use xlink:href="#m3236798f92" x="299.921805" y="307.584" style="stroke: #000000; stroke-width: 0.8"/>
      </g>
     </g>
     <g id="text_4">
      <!-- 2.0 -->
      <g transform="translate(291.970243 322.182437)scale(0.1 -0.1)">
       <defs>
        <path id="DejaVuSans-32" d="M 1228 531 
L 3431 531 
L 3431 0 
L 469 0 
L 469 531 
Q 828 903 1448 1529 
Q 2069 2156 2228 2338 
Q 2531 2678 2651 2914 
Q 2772 3150 2772 3378 
Q 2772 3750 2511 3984 
Q 2250 4219 1831 4219 
Q 1534 4219 1204 4116 
Q 875 4013 500 3803 
L 500 4441 
Q 881 4594 1212 4672 
Q 1544 4750 1819 4750 
Q 2544 4750 2975 4387 
Q 3406 4025 3406 3419 
Q 3406 3131 3298 2873 
Q 3191 2616 2906 2266 
Q 2828 2175 2409 1742 
Q 1991 1309 1228 531 
z
" transform="scale(0.015625)"/>
        <path id="DejaVuSans-30" d="M 2034 4250 
Q 1547 4250 1301 3770 
Q 1056 3291 1056 2328 
Q 1056 1369 1301 889 
Q 1547 409 2034 409 
Q 2525 409 2770 889 
Q 3016 1369 3016 2328 
Q 3016 3291 2770 3770 
Q 2525 4250 2034 4250 
z
M 2034 4750 
Q 2819 4750 3233 4129 
Q 3647 3509 3647 2328 
Q 3647 1150 3233 529 
Q 2819 -91 2034 -91 
Q 1250 -91 836 529 
Q 422 1150 422 2328 
Q 422 3509 836 4129 
Q 1250 4750 2034 4750 
z
" transform="scale(0.015625)"/>
       </defs>
       <use xlink:href="#DejaVuSans-32"/>
       <use xlink:href="#DejaVuSans-2e" x="63.623047"/>
       <use xlink:href="#DejaVuSans-30" x="95.410156"/>
      </g>
     </g>
    </g>
    <g id="xtick_5">
     <g id="line2d_5">
      <g>
       <use xlink:href="#m3236798f92" x="367.799031" y="307.584" style="stroke: #000000; stroke-width: 0.8"/>
      </g>
     </g>
     <g id="text_5">
      <!-- 2.2 -->
      <g transform="translate(359.847469 322.182437)scale(0.1 -0.1)">
       <use xlink:href="#DejaVuSans-32"/>
       <use xlink:href="#DejaVuSans-2e" x="63.623047"/>
       <use xlink:href="#DejaVuSans-32" x="95.410156"/>
      </g>
     </g>
    </g>
    <g id="text_6">
     <!-- Angular Frequencies (rad/s) -->
     <g transform="translate(167.11625 335.860562)scale(0.1 -0.1)">
      <defs>
       <path id="DejaVuSans-41" d="M 2188 4044 
L 1331 1722 
L 3047 1722 
L 2188 4044 
z
M 1831 4666 
L 2547 4666 
L 4325 0 
L 3669 0 
L 3244 1197 
L 1141 1197 
L 716 0 
L 50 0 
L 1831 4666 
z
" transform="scale(0.015625)"/>
       <path id="DejaVuSans-6e" d="M 3513 2113 
L 3513 0 
L 2938 0 
L 2938 2094 
Q 2938 2591 2744 2837 
Q 2550 3084 2163 3084 
Q 1697 3084 1428 2787 
Q 1159 2491 1159 1978 
L 1159 0 
L 581 0 
L 581 3500 
L 1159 3500 
L 1159 2956 
Q 1366 3272 1645 3428 
Q 1925 3584 2291 3584 
Q 2894 3584 3203 3211 
Q 3513 2838 3513 2113 
z
" transform="scale(0.015625)"/>
       <path id="DejaVuSans-67" d="M 2906 1791 
Q 2906 2416 2648 2759 
Q 2391 3103 1925 3103 
Q 1463 3103 1205 2759 
Q 947 2416 947 1791 
Q 947 1169 1205 825 
Q 1463 481 1925 481 
Q 2391 481 2648 825 
Q 2906 1169 2906 1791 
z
M 3481 434 
Q 3481 -459 3084 -895 
Q 2688 -1331 1869 -1331 
Q 1566 -1331 1297 -1286 
Q 1028 -1241 775 -1147 
L 775 -588 
Q 1028 -725 1275 -790 
Q 1522 -856 1778 -856 
Q 2344 -856 2625 -561 
Q 2906 -266 2906 331 
L 2906 616 
Q 2728 306 2450 153 
Q 2172 0 1784 0 
Q 1141 0 747 490 
Q 353 981 353 1791 
Q 353 2603 747 3093 
Q 1141 3584 1784 3584 
Q 2172 3584 2450 3431 
Q 2728 3278 2906 2969 
L 2906 3500 
L 3481 3500 
L 3481 434 
z
" transform="scale(0.015625)"/>
       <path id="DejaVuSans-75" d="M 544 1381 
L 544 3500 
L 1119 3500 
L 1119 1403 
Q 1119 906 1312 657 
Q 1506 409 1894 409 
Q 2359 409 2629 706 
Q 2900 1003 2900 1516 
L 2900 3500 
L 3475 3500 
L 3475 0 
L 2900 0 
L 2900 538 
Q 2691 219 2414 64 
Q 2138 -91 1772 -91 
Q 1169 -91 856 284 
Q 544 659 544 1381 
z
M 1991 3584 
L 1991 3584 
z
" transform="scale(0.015625)"/>
       <path id="DejaVuSans-6c" d="M 603 4863 
L 1178 4863 
L 1178 0 
L 603 0 
L 603 4863 
z
" transform="scale(0.015625)"/>
       <path id="DejaVuSans-61" d="M 2194 1759 
Q 1497 1759 1228 1600 
Q 959 1441 959 1056 
Q 959 750 1161 570 
Q 1363 391 1709 391 
Q 2188 391 2477 730 
Q 2766 1069 2766 1631 
L 2766 1759 
L 2194 1759 
z
M 3341 1997 
L 3341 0 
L 2766 0 
L 2766 531 
Q 2569 213 2275 61 
Q 1981 -91 1556 -91 
Q 1019 -91 701 211 
Q 384 513 384 1019 
Q 384 1609 779 1909 
Q 1175 2209 1959 2209 
L 2766 2209 
L 2766 2266 
Q 2766 2663 2505 2880 
Q 2244 3097 1772 3097 
Q 1472 3097 1187 3025 
Q 903 2953 641 2809 
L 641 3341 
Q 956 3463 1253 3523 
Q 1550 3584 1831 3584 
Q 2591 3584 2966 3190 
Q 3341 2797 3341 1997 
z
" transform="scale(0.015625)"/>
       <path id="DejaVuSans-72" d="M 2631 2963 
Q 2534 3019 2420 3045 
Q 2306 3072 2169 3072 
Q 1681 3072 1420 2755 
Q 1159 2438 1159 1844 
L 1159 0 
L 581 0 
L 581 3500 
L 1159 3500 
L 1159 2956 
Q 1341 3275 1631 3429 
Q 1922 3584 2338 3584 
Q 2397 3584 2469 3576 
Q 2541 3569 2628 3553 
L 2631 2963 
z
" transform="scale(0.015625)"/>
       <path id="DejaVuSans-20" transform="scale(0.015625)"/>
       <path id="DejaVuSans-46" d="M 628 4666 
L 3309 4666 
L 3309 4134 
L 1259 4134 
L 1259 2759 
L 3109 2759 
L 3109 2228 
L 1259 2228 
L 1259 0 
L 628 0 
L 628 4666 
z
" transform="scale(0.015625)"/>
       <path id="DejaVuSans-65" d="M 3597 1894 
L 3597 1613 
L 953 1613 
Q 991 1019 1311 708 
Q 1631 397 2203 397 
Q 2534 397 2845 478 
Q 3156 559 3463 722 
L 3463 178 
Q 3153 47 2828 -22 
Q 2503 -91 2169 -91 
Q 1331 -91 842 396 
Q 353 884 353 1716 
Q 353 2575 817 3079 
Q 1281 3584 2069 3584 
Q 2775 3584 3186 3129 
Q 3597 2675 3597 1894 
z
M 3022 2063 
Q 3016 2534 2758 2815 
Q 2500 3097 2075 3097 
Q 1594 3097 1305 2825 
Q 1016 2553 972 2059 
L 3022 2063 
z
" transform="scale(0.015625)"/>
       <path id="DejaVuSans-71" d="M 947 1747 
Q 947 1113 1208 752 
Q 1469 391 1925 391 
Q 2381 391 2643 752 
Q 2906 1113 2906 1747 
Q 2906 2381 2643 2742 
Q 2381 3103 1925 3103 
Q 1469 3103 1208 2742 
Q 947 2381 947 1747 
z
M 2906 525 
Q 2725 213 2448 61 
Q 2172 -91 1784 -91 
Q 1150 -91 751 415 
Q 353 922 353 1747 
Q 353 2572 751 3078 
Q 1150 3584 1784 3584 
Q 2172 3584 2448 3432 
Q 2725 3281 2906 2969 
L 2906 3500 
L 3481 3500 
L 3481 -1331 
L 2906 -1331 
L 2906 525 
z
" transform="scale(0.015625)"/>
       <path id="DejaVuSans-63" d="M 3122 3366 
L 3122 2828 
Q 2878 2963 2633 3030 
Q 2388 3097 2138 3097 
Q 1578 3097 1268 2742 
Q 959 2388 959 1747 
Q 959 1106 1268 751 
Q 1578 397 2138 397 
Q 2388 397 2633 464 
Q 2878 531 3122 666 
L 3122 134 
Q 2881 22 2623 -34 
Q 2366 -91 2075 -91 
Q 1284 -91 818 406 
Q 353 903 353 1747 
Q 353 2603 823 3093 
Q 1294 3584 2113 3584 
Q 2378 3584 2631 3529 
Q 2884 3475 3122 3366 
z
" transform="scale(0.015625)"/>
       <path id="DejaVuSans-69" d="M 603 3500 
L 1178 3500 
L 1178 0 
L 603 0 
L 603 3500 
z
M 603 4863 
L 1178 4863 
L 1178 4134 
L 603 4134 
L 603 4863 
z
" transform="scale(0.015625)"/>
       <path id="DejaVuSans-73" d="M 2834 3397 
L 2834 2853 
Q 2591 2978 2328 3040 
Q 2066 3103 1784 3103 
Q 1356 3103 1142 2972 
Q 928 2841 928 2578 
Q 928 2378 1081 2264 
Q 1234 2150 1697 2047 
L 1894 2003 
Q 2506 1872 2764 1633 
Q 3022 1394 3022 966 
Q 3022 478 2636 193 
Q 2250 -91 1575 -91 
Q 1294 -91 989 -36 
Q 684 19 347 128 
L 347 722 
Q 666 556 975 473 
Q 1284 391 1588 391 
Q 1994 391 2212 530 
Q 2431 669 2431 922 
Q 2431 1156 2273 1281 
Q 2116 1406 1581 1522 
L 1381 1569 
Q 847 1681 609 1914 
Q 372 2147 372 2553 
Q 372 3047 722 3315 
Q 1072 3584 1716 3584 
Q 2034 3584 2315 3537 
Q 2597 3491 2834 3397 
z
" transform="scale(0.015625)"/>
       <path id="DejaVuSans-28" d="M 1984 4856 
Q 1566 4138 1362 3434 
Q 1159 2731 1159 2009 
Q 1159 1288 1364 580 
Q 1569 -128 1984 -844 
L 1484 -844 
Q 1016 -109 783 600 
Q 550 1309 550 2009 
Q 550 2706 781 3412 
Q 1013 4119 1484 4856 
L 1984 4856 
z
" transform="scale(0.015625)"/>
       <path id="DejaVuSans-64" d="M 2906 2969 
L 2906 4863 
L 3481 4863 
L 3481 0 
L 2906 0 
L 2906 525 
Q 2725 213 2448 61 
Q 2172 -91 1784 -91 
Q 1150 -91 751 415 
Q 353 922 353 1747 
Q 353 2572 751 3078 
Q 1150 3584 1784 3584 
Q 2172 3584 2448 3432 
Q 2725 3281 2906 2969 
z
M 947 1747 
Q 947 1113 1208 752 
Q 1469 391 1925 391 
Q 2381 391 2643 752 
Q 2906 1113 2906 1747 
Q 2906 2381 2643 2742 
Q 2381 3103 1925 3103 
Q 1469 3103 1208 2742 
Q 947 2381 947 1747 
z
" transform="scale(0.015625)"/>
       <path id="DejaVuSans-2f" d="M 1625 4666 
L 2156 4666 
L 531 -594 
L 0 -594 
L 1625 4666 
z
" transform="scale(0.015625)"/>
       <path id="DejaVuSans-29" d="M 513 4856 
L 1013 4856 
Q 1481 4119 1714 3412 
Q 1947 2706 1947 2009 
Q 1947 1309 1714 600 
Q 1481 -109 1013 -844 
L 513 -844 
Q 928 -128 1133 580 
Q 1338 1288 1338 2009 
Q 1338 2731 1133 3434 
Q 928 4138 513 4856 
z
" transform="scale(0.015625)"/>
      </defs>
      <use xlink:href="#DejaVuSans-41"/>
      <use xlink:href="#DejaVuSans-6e" x="68.408203"/>
      <use xlink:href="#DejaVuSans-67" x="131.787109"/>
      <use xlink:href="#DejaVuSans-75" x="195.263672"/>
      <use xlink:href="#DejaVuSans-6c" x="258.642578"/>
      <use xlink:href="#DejaVuSans-61" x="286.425781"/>
      <use xlink:href="#DejaVuSans-72" x="347.705078"/>
      <use xlink:href="#DejaVuSans-20" x="388.818359"/>
      <use xlink:href="#DejaVuSans-46" x="420.605469"/>
      <use xlink:href="#DejaVuSans-72" x="470.875"/>
      <use xlink:href="#DejaVuSans-65" x="509.738281"/>
      <use xlink:href="#DejaVuSans-71" x="571.261719"/>
      <use xlink:href="#DejaVuSans-75" x="634.738281"/>
      <use xlink:href="#DejaVuSans-65" x="698.117188"/>
      <use xlink:href="#DejaVuSans-6e" x="759.640625"/>
      <use xlink:href="#DejaVuSans-63" x="823.019531"/>
      <use xlink:href="#DejaVuSans-69" x="878"/>
      <use xlink:href="#DejaVuSans-65" x="905.783203"/>
      <use xlink:href="#DejaVuSans-73" x="967.306641"/>
      <use xlink:href="#DejaVuSans-20" x="1019.40625"/>
      <use xlink:href="#DejaVuSans-28" x="1051.193359"/>
      <use xlink:href="#DejaVuSans-72" x="1090.207031"/>
      <use xlink:href="#DejaVuSans-61" x="1131.320312"/>
      <use xlink:href="#DejaVuSans-64" x="1192.599609"/>
      <use xlink:href="#DejaVuSans-2f" x="1256.076172"/>
      <use xlink:href="#DejaVuSans-73" x="1289.767578"/>
      <use xlink:href="#DejaVuSans-29" x="1341.867188"/>
     </g>
    </g>
    <g id="text_7">
     <!-- 1e15 -->
     <g transform="translate(389.479375 334.860562)scale(0.1 -0.1)">
      <defs>
       <path id="DejaVuSans-35" d="M 691 4666 
L 3169 4666 
L 3169 4134 
L 1269 4134 
L 1269 2991 
Q 1406 3038 1543 3061 
Q 1681 3084 1819 3084 
Q 2600 3084 3056 2656 
Q 3513 2228 3513 1497 
Q 3513 744 3044 326 
Q 2575 -91 1722 -91 
Q 1428 -91 1123 -41 
Q 819 9 494 109 
L 494 744 
Q 775 591 1075 516 
Q 1375 441 1709 441 
Q 2250 441 2565 725 
Q 2881 1009 2881 1497 
Q 2881 1984 2565 2268 
Q 2250 2553 1709 2553 
Q 1456 2553 1204 2497 
Q 953 2441 691 2322 
L 691 4666 
z
" transform="scale(0.015625)"/>
      </defs>
      <use xlink:href="#DejaVuSans-31"/>
      <use xlink:href="#DejaVuSans-65" x="63.623047"/>
      <use xlink:href="#DejaVuSans-31" x="125.146484"/>
      <use xlink:href="#DejaVuSans-35" x="188.769531"/>
     </g>
    </g>
   </g>
   <g id="matplotlib.axis_2">
    <g id="ytick_1">
     <g id="line2d_6">
      <defs>
       <path id="m1fe999ed88" d="M 0 0 
L -3.5 0 
" style="stroke: #000000; stroke-width: 0.8"/>
      </defs>
      <g>
       <use xlink:href="#m1fe999ed88" x="57.6" y="295.488" style="stroke: #000000; stroke-width: 0.8"/>
      </g>
     </g>
     <g id="text_8">
      <!-- 0 -->
      <g transform="translate(44.2375 299.287219)scale(0.1 -0.1)">
       <use xlink:href="#DejaVuSans-30"/>
      </g>
     </g>
    </g>
    <g id="ytick_2">
     <g id="line2d_7">
      <g>
       <use xlink:href="#m1fe999ed88" x="57.6" y="248.632953" style="stroke: #000000; stroke-width: 0.8"/>
      </g>
     </g>
     <g id="text_9">
      <!-- 5000 -->
      <g transform="translate(25.15 252.432171)scale(0.1 -0.1)">
       <use xlink:href="#DejaVuSans-35"/>
       <use xlink:href="#DejaVuSans-30" x="63.623047"/>
       <use xlink:href="#DejaVuSans-30" x="127.246094"/>
       <use xlink:href="#DejaVuSans-30" x="190.869141"/>
      </g>
     </g>
    </g>
    <g id="ytick_3">
     <g id="line2d_8">
      <g>
       <use xlink:href="#m1fe999ed88" x="57.6" y="201.777905" style="stroke: #000000; stroke-width: 0.8"/>
      </g>
     </g>
     <g id="text_10">
      <!-- 10000 -->
      <g transform="translate(18.7875 205.577124)scale(0.1 -0.1)">
       <use xlink:href="#DejaVuSans-31"/>
       <use xlink:href="#DejaVuSans-30" x="63.623047"/>
       <use xlink:href="#DejaVuSans-30" x="127.246094"/>
       <use xlink:href="#DejaVuSans-30" x="190.869141"/>
       <use xlink:href="#DejaVuSans-30" x="254.492188"/>
      </g>
     </g>
    </g>
    <g id="ytick_4">
     <g id="line2d_9">
      <g>
       <use xlink:href="#m1fe999ed88" x="57.6" y="154.922858" style="stroke: #000000; stroke-width: 0.8"/>
      </g>
     </g>
     <g id="text_11">
      <!-- 15000 -->
      <g transform="translate(18.7875 158.722077)scale(0.1 -0.1)">
       <use xlink:href="#DejaVuSans-31"/>
       <use xlink:href="#DejaVuSans-35" x="63.623047"/>
       <use xlink:href="#DejaVuSans-30" x="127.246094"/>
       <use xlink:href="#DejaVuSans-30" x="190.869141"/>
       <use xlink:href="#DejaVuSans-30" x="254.492188"/>
      </g>
     </g>
    </g>
    <g id="ytick_5">
     <g id="line2d_10">
      <g>
       <use xlink:href="#m1fe999ed88" x="57.6" y="108.067811" style="stroke: #000000; stroke-width: 0.8"/>
      </g>
     </g>
     <g id="text_12">
      <!-- 20000 -->
      <g transform="translate(18.7875 111.86703)scale(0.1 -0.1)">
       <use xlink:href="#DejaVuSans-32"/>
       <use xlink:href="#DejaVuSans-30" x="63.623047"/>
       <use xlink:href="#DejaVuSans-30" x="127.246094"/>
       <use xlink:href="#DejaVuSans-30" x="190.869141"/>
       <use xlink:href="#DejaVuSans-30" x="254.492188"/>
      </g>
     </g>
    </g>
    <g id="ytick_6">
     <g id="line2d_11">
      <g>
       <use xlink:href="#m1fe999ed88" x="57.6" y="61.212763" style="stroke: #000000; stroke-width: 0.8"/>
      </g>
     </g>
     <g id="text_13">
      <!-- 25000 -->
      <g transform="translate(18.7875 65.011982)scale(0.1 -0.1)">
       <use xlink:href="#DejaVuSans-32"/>
       <use xlink:href="#DejaVuSans-35" x="63.623047"/>
       <use xlink:href="#DejaVuSans-30" x="127.246094"/>
       <use xlink:href="#DejaVuSans-30" x="190.869141"/>
       <use xlink:href="#DejaVuSans-30" x="254.492188"/>
      </g>
     </g>
    </g>
   </g>
   <g id="line2d_12">
    <path d="M 73.832727 295.443642 
L 74.149928 295.485599 
L 74.625728 295.210889 
L 75.577329 295.484507 
L 76.52893 295.421239 
L 76.68753 295.476207 
L 77.321931 294.926991 
L 77.797731 295.365011 
L 78.273532 293.799306 
L 78.907933 295.465956 
L 79.542333 295.422065 
L 79.859534 295.4827 
L 80.335334 295.083303 
L 80.652535 295.274718 
L 80.969735 295.488 
L 81.445535 295.481337 
L 81.921336 295.145978 
L 82.238536 295.278465 
L 82.714337 295.456491 
L 83.507338 295.488 
L 83.824538 294.967108 
L 84.141738 294.497779 
L 84.617539 295.449417 
L 85.093339 295.488 
L 86.362141 295.390683 
L 86.837941 295.035057 
L 87.313742 295.464483 
L 88.106742 295.329816 
L 88.582543 295.488 
L 88.899743 295.488 
L 89.058343 295.317064 
L 89.534144 294.344007 
L 90.168545 295.488 
L 90.644345 295.444936 
L 91.120146 294.2447 
L 91.278746 294.34228 
L 91.754546 295.488 
L 93.023348 295.396309 
L 93.499148 295.29061 
L 94.133549 295.488 
L 95.08515 295.488 
L 95.719551 294.929309 
L 96.353951 295.488 
L 96.988352 295.422954 
L 97.464152 295.331919 
L 97.939953 295.410254 
L 98.574354 295.077991 
L 99.050154 295.4775 
L 99.684555 295.03001 
L 100.318955 295.476288 
L 101.587757 295.443312 
L 102.539358 295.47907 
L 103.173758 295.147479 
L 103.808159 295.435034 
L 104.28396 295.22314 
L 105.394161 295.478905 
L 105.711361 295.123228 
L 106.028562 294.676429 
L 106.821562 295.480425 
L 108.407564 295.488 
L 109.041965 294.697308 
L 109.517765 295.35734 
L 109.676365 295.369739 
L 110.152166 294.496149 
L 110.310766 294.565268 
L 110.786567 295.437257 
L 111.262367 295.488 
L 112.848369 295.405331 
L 113.324169 295.342571 
L 113.79997 295.474915 
L 114.11717 294.987587 
L 114.43437 294.40004 
L 114.910171 295.191468 
L 115.068771 295.484513 
L 115.703172 295.458864 
L 116.337573 294.537463 
L 116.971973 295.264234 
L 117.923574 295.420102 
L 118.240775 295.459143 
L 119.350976 295.163199 
L 121.254178 295.371608 
L 122.047179 295.167981 
L 122.681579 295.488 
L 123.31598 295.393656 
L 123.79178 295.055459 
L 125.060582 295.484137 
L 125.853583 294.810625 
L 126.329383 295.42607 
L 126.487983 295.308381 
L 126.963784 294.536518 
L 127.122384 294.607562 
L 127.756785 295.426587 
L 128.391185 295.080925 
L 129.501387 295.462047 
L 129.818587 295.337125 
L 130.294387 295.021957 
L 131.245988 295.417254 
L 131.563189 295.485215 
L 132.197589 294.795285 
L 132.51479 295.06688 
L 132.83199 295.419792 
L 132.99059 295.402984 
L 133.624991 294.971486 
L 134.259392 295.488 
L 135.686793 295.400797 
L 136.321194 295.127572 
L 136.955594 295.449273 
L 137.748595 295.366061 
L 138.541596 295.488 
L 138.858796 295.488 
L 139.334597 294.99569 
L 139.651797 294.78237 
L 140.286198 295.48417 
L 141.237799 295.213095 
L 141.7136 295.025396 
L 143.934002 295.410271 
L 144.409802 295.279566 
L 145.044203 295.479624 
L 145.837204 294.935418 
L 146.471605 295.473654 
L 147.106005 294.63948 
L 147.264605 294.708736 
L 147.899006 295.453489 
L 148.533407 294.913581 
L 149.167807 295.20129 
L 149.960808 295.485133 
L 150.753809 295.059466 
L 151.38821 295.486828 
L 152.181211 295.085552 
L 152.815611 295.306549 
L 153.608612 295.027919 
L 154.401613 295.488 
L 155.353214 295.396239 
L 155.829015 295.182369 
L 156.463415 294.637264 
L 157.097816 294.62874 
L 158.049417 295.310462 
L 159.159618 295.101089 
L 159.476818 295.070377 
L 160.58702 295.278661 
L 160.74562 295.324741 
L 161.22142 294.866423 
L 161.538621 294.544708 
L 162.331621 295.43711 
L 163.124622 294.910962 
L 164.076223 295.098934 
L 164.552024 295.233372 
L 165.345025 294.745709 
L 165.979425 294.688159 
L 166.772426 295.315817 
L 167.406827 294.162953 
L 167.565427 294.109183 
L 168.199828 295.367785 
L 168.358428 295.343063 
L 168.992829 294.404868 
L 169.468629 295.028692 
L 169.785829 295.47946 
L 170.57883 294.409035 
L 171.213231 295.347526 
L 171.371831 295.366706 
L 172.006232 294.157618 
L 172.164832 294.111469 
L 172.799233 294.720117 
L 173.116433 294.521845 
L 173.592233 294.096286 
L 174.226634 294.449341 
L 174.543834 294.516076 
L 175.495435 294.383801 
L 175.971236 294.345344 
L 176.764237 292.965449 
L 177.557238 294.411505 
L 178.350238 293.517229 
L 179.143239 294.03797 
L 179.93624 293.185592 
L 180.570641 293.621648 
L 180.729241 293.586778 
L 181.522242 292.544785 
L 182.315243 293.122035 
L 183.108244 292.545536 
L 183.901244 292.698131 
L 184.694245 291.507427 
L 185.487246 291.888982 
L 186.756047 291.016374 
L 187.549048 290.730723 
L 188.024849 290.725777 
L 188.659249 291.134205 
L 188.97645 290.440021 
L 189.61085 288.994574 
L 190.245251 289.63375 
L 190.403851 289.627654 
L 191.196852 288.032661 
L 191.989853 288.481018 
L 193.100054 287.739594 
L 193.893055 286.988789 
L 194.844656 285.907596 
L 195.479057 285.243389 
L 196.430658 284.00421 
L 197.065058 283.3308 
L 197.858059 281.182507 
L 198.65106 281.474502 
L 199.126861 280.627329 
L 199.761261 279.606746 
L 200.554262 278.725206 
L 202.933265 274.812383 
L 204.043466 271.109204 
L 204.995067 270.039908 
L 205.470867 269.623073 
L 205.788068 268.678307 
L 206.422468 266.464506 
L 207.215469 266.057475 
L 207.53267 264.489699 
L 208.32567 260.336722 
L 208.960071 258.837947 
L 209.277271 256.859838 
L 209.911672 252.265946 
L 210.863273 251.186471 
L 211.656274 251.21261 
L 212.449275 252.482469 
L 212.607875 252.369053 
L 213.718076 245.230428 
L 215.304078 232.891195 
L 216.255679 229.354708 
L 217.04868 224.835512 
L 218.000281 222.907085 
L 219.269082 217.147518 
L 219.903483 213.532297 
L 221.806685 200.347998 
L 222.441085 198.345129 
L 222.599686 198.443558 
L 223.392686 200.462072 
L 223.868487 199.219075 
L 224.344287 197.830793 
L 225.295888 190.754376 
L 226.40609 165.764545 
L 227.19909 153.974956 
L 227.992091 136.654062 
L 228.150691 135.904019 
L 229.260893 143.536014 
L 230.846894 151.310451 
L 231.322695 140.073919 
L 233.543097 80.561368 
L 233.860298 73.918377 
L 234.653298 67.639092 
L 235.129099 78.200433 
L 236.3979 106.433611 
L 236.715101 111.577559 
L 237.825302 119.345498 
L 238.459702 122.52548 
L 238.618303 122.373408 
L 239.728504 115.91526 
L 240.362904 113.515202 
L 240.521505 113.6547 
L 241.473106 126.297057 
L 242.424707 121.681127 
L 243.534908 53.568 
L 244.327909 67.277665 
L 244.645109 78.622132 
L 245.43811 108.526325 
L 246.389711 79.760124 
L 247.341312 87.230038 
L 247.975713 101.75249 
L 248.610113 115.189434 
L 250.354715 142.844622 
L 250.671915 137.304274 
L 251.464916 121.008177 
L 252.575117 108.660351 
L 253.368118 96.12064 
L 253.526718 98.302624 
L 254.79552 139.430501 
L 255.747121 171.456128 
L 256.540122 189.684169 
L 257.650323 180.317959 
L 258.760524 166.051408 
L 259.553525 159.172287 
L 259.870725 167.152355 
L 260.822326 192.63738 
L 262.408328 218.839963 
L 262.725528 223.446923 
L 263.677129 221.208409 
L 263.835729 220.273393 
L 264.945931 209.655141 
L 265.897532 204.687873 
L 267.166333 218.396202 
L 268.593735 239.209193 
L 269.069535 246.587104 
L 270.021136 247.685115 
L 270.179736 247.630559 
L 271.289937 243.764149 
L 272.241538 242.742659 
L 272.558739 244.814559 
L 273.66894 252.611068 
L 274.937741 259.98085 
L 275.572142 263.938222 
L 276.682343 266.483391 
L 277.792544 265.085828 
L 278.744145 265.801059 
L 279.061346 266.896111 
L 281.281748 276.109789 
L 282.233349 278.149339 
L 283.819351 279.026796 
L 284.929552 279.677303 
L 285.405352 279.908053 
L 285.563953 280.150069 
L 286.674154 283.309106 
L 289.053156 285.157253 
L 290.004757 285.075965 
L 291.273559 286.562959 
L 292.22516 286.239936 
L 292.38376 286.348942 
L 293.493961 288.327305 
L 294.762762 288.658227 
L 295.872964 289.492936 
L 297.141765 289.776288 
L 298.251966 290.353473 
L 299.362167 290.585044 
L 300.472368 291.625513 
L 301.58257 291.341414 
L 302.21697 291.929318 
L 302.851371 292.475737 
L 303.961572 292.002383 
L 304.913173 292.809782 
L 305.230373 293.01127 
L 306.499175 292.622526 
L 308.085177 293.246802 
L 309.036778 293.619993 
L 311.73298 293.735933 
L 312.367381 293.715626 
L 313.160382 294.524322 
L 313.636182 294.989152 
L 314.904984 293.90904 
L 316.173785 293.954087 
L 317.918387 294.793452 
L 318.552788 295.134358 
L 319.821589 293.730906 
L 321.09039 294.715631 
L 322.517792 294.606803 
L 323.627993 294.863404 
L 326.165596 294.499518 
L 327.434397 294.937972 
L 328.703198 294.649238 
L 329.8134 294.860351 
L 329.972 295.488 
L 398.487273 295.488 
L 398.487273 295.488 
" clip-path="url(#p19ea6e95cf)" style="fill: none; stroke: #1f77b4; stroke-width: 1.5; stroke-linecap: square"/>
   </g>
   <g id="patch_3">
    <path d="M 57.6 307.584 
L 57.6 41.472 
" style="fill: none; stroke: #000000; stroke-width: 0.8; stroke-linejoin: miter; stroke-linecap: square"/>
   </g>
   <g id="patch_4">
    <path d="M 414.72 307.584 
L 414.72 41.472 
" style="fill: none; stroke: #000000; stroke-width: 0.8; stroke-linejoin: miter; stroke-linecap: square"/>
   </g>
   <g id="patch_5">
    <path d="M 57.6 307.584 
L 414.72 307.584 
" style="fill: none; stroke: #000000; stroke-width: 0.8; stroke-linejoin: miter; stroke-linecap: square"/>
   </g>
   <g id="patch_6">
    <path d="M 57.6 41.472 
L 414.72 41.472 
" style="fill: none; stroke: #000000; stroke-width: 0.8; stroke-linejoin: miter; stroke-linecap: square"/>
   </g>
   <g id="text_14">
    <!-- Final Data -->
    <g transform="translate(206.098125 35.472)scale(0.12 -0.12)">
     <defs>
      <path id="DejaVuSans-44" d="M 1259 4147 
L 1259 519 
L 2022 519 
Q 2988 519 3436 956 
Q 3884 1394 3884 2338 
Q 3884 3275 3436 3711 
Q 2988 4147 2022 4147 
L 1259 4147 
z
M 628 4666 
L 1925 4666 
Q 3281 4666 3915 4102 
Q 4550 3538 4550 2338 
Q 4550 1131 3912 565 
Q 3275 0 1925 0 
L 628 0 
L 628 4666 
z
" transform="scale(0.015625)"/>
      <path id="DejaVuSans-74" d="M 1172 4494 
L 1172 3500 
L 2356 3500 
L 2356 3053 
L 1172 3053 
L 1172 1153 
Q 1172 725 1289 603 
Q 1406 481 1766 481 
L 2356 481 
L 2356 0 
L 1766 0 
Q 1100 0 847 248 
Q 594 497 594 1153 
L 594 3053 
L 172 3053 
L 172 3500 
L 594 3500 
L 594 4494 
L 1172 4494 
z
" transform="scale(0.015625)"/>
     </defs>
     <use xlink:href="#DejaVuSans-46"/>
     <use xlink:href="#DejaVuSans-69" x="50.269531"/>
     <use xlink:href="#DejaVuSans-6e" x="78.052734"/>
     <use xlink:href="#DejaVuSans-61" x="141.431641"/>
     <use xlink:href="#DejaVuSans-6c" x="202.710938"/>
     <use xlink:href="#DejaVuSans-20" x="230.494141"/>
     <use xlink:href="#DejaVuSans-44" x="262.28125"/>
     <use xlink:href="#DejaVuSans-61" x="339.283203"/>
     <use xlink:href="#DejaVuSans-74" x="400.5625"/>
     <use xlink:href="#DejaVuSans-61" x="439.771484"/>
    </g>
   </g>
  </g>
 </g>
 <defs>
  <clipPath id="p19ea6e95cf">
   <rect x="57.6" y="41.472" width="357.12" height="266.112"/>
  </clipPath>
 </defs>
</svg>
